<?xml version="1.0" encoding="UTF-8"?>
<svg id="Layer_2" data-name="Layer 2" xmlns="http://www.w3.org/2000/svg" viewBox="0 0 1028.33 164.48">
  <defs>
    <style>
      .cls-1 {
        fill: #ededed;
      }
    </style>
  </defs>
  <g id="Layer_1-2" data-name="Layer 1">
    <g>
      <polygon class="cls-1" points="867.34 118.48 867.34 0 821.35 0 821.35 118.48 867.34 164.48 1028.33 164.48 1028.33 118.48 867.34 118.48"/>
      <path class="cls-1" d="M0,0v59.24h46v-13.25h137.99v13.25H46L0,105.24v59.24h205.32l24.66-24.66v-24.34l-22.98-10.24h-1.68l24.66-24.66V24.66L205.32,0H0ZM183.99,118.48H46v-13.25h137.99v13.25Z"/>
      <polygon class="cls-1" points="579.59 0 579.59 46 625.59 46 763.58 46 763.58 118.48 625.59 118.48 625.59 46 579.59 91.99 579.59 164.48 763.58 164.48 809.58 118.48 809.58 46 763.58 0 579.59 0"/>
      <polygon class="cls-1" points="530.74 164.48 530.74 118.48 530.74 105.24 484.74 59.24 361.94 59.24 361.94 105.24 484.74 105.24 484.74 118.48 484.74 164.48 530.74 164.48"/>
      <polygon class="cls-1" points="323.11 0 300.76 22.36 300.76 118.48 346.75 164.48 438.74 164.48 484.74 118.48 346.75 118.48 346.75 46 530.74 46 530.74 24.66 506.07 0 323.11 0"/>
      <rect class="cls-1" x="241.78" width="46" height="59.24"/>
      <polygon class="cls-1" points="241.78 164.48 287.78 164.48 287.78 59.24 241.78 105.24 241.78 164.48"/>
    </g>
  </g>
</svg>
