<?xml version="1.0" encoding="UTF-8"?>
<svg id="Layer_2" data-name="Layer 2" xmlns="http://www.w3.org/2000/svg" viewBox="0 0 1032.33 168.48">
  <defs>
    <style>
      .cls-1 {
        fill: none;
        stroke: #fff;
        stroke-miterlimit: 10;
        stroke-width: 4px;
      }
    </style>
  </defs>
  <g id="Layer_1-2" data-name="Layer 1">
    <g>
      <polygon class="cls-1" points="869.34 120.48 869.34 2 823.35 2 823.35 120.48 869.34 166.48 1030.33 166.48 1030.33 120.48 869.34 120.48"/>
      <path class="cls-1" d="M2,2v59.24h46v-13.25h137.99v13.25H48L2,107.24v59.24h205.32l24.66-24.66v-24.34l-22.98-10.24h-1.68l24.66-24.66V26.66l-24.66-24.66H2ZM185.99,120.48H48v-13.25h137.99v13.25Z"/>
      <polygon class="cls-1" points="581.59 2 581.59 48 627.59 48 765.58 48 765.58 120.48 627.59 120.48 627.59 48 581.59 93.99 581.59 166.48 765.58 166.48 811.58 120.48 811.58 48 765.58 2 581.59 2"/>
      <polygon class="cls-1" points="532.74 166.48 532.74 120.48 532.74 107.24 486.74 61.24 363.94 61.24 363.94 107.24 486.74 107.24 486.74 120.48 486.74 166.48 532.74 166.48"/>
      <polygon class="cls-1" points="325.11 2 302.76 24.36 302.76 120.48 348.75 166.48 440.74 166.48 486.74 120.48 348.75 120.48 348.75 48 532.74 48 532.74 26.66 508.07 2 325.11 2"/>
      <rect class="cls-1" x="243.78" y="2" width="46" height="59.24"/>
      <polygon class="cls-1" points="243.78 166.48 289.78 166.48 289.78 61.24 243.78 107.24 243.78 166.48"/>
    </g>
  </g>
</svg>