<?xml version="1.0" encoding="UTF-8"?>
<svg id="Layer_2" data-name="Layer 2" xmlns="http://www.w3.org/2000/svg" viewBox="0 0 402.67 542.2">
  <defs>
    <style>
      .cls-1 {
        fill: #0b0b0b;
      }
    </style>
  </defs>
  <g id="Layer_1-2" data-name="Layer 1">
    <g>
      <path class="cls-1" d="M368.23,0H81.46v82.74h64.24v-18.5h192.73v18.5h-192.73l-64.24,64.24v82.74h286.77l34.45-34.45v-33.99l-32.1-14.3h-2.35l34.45-34.45V34.45L368.23,0ZM338.43,165.48h-192.73v-18.5h192.73v18.5Z"/>
      <polygon class="cls-1" points="81.46 248.23 81.46 312.47 338.43 312.47 338.43 396.15 145.7 396.15 145.7 312.47 81.46 376.71 81.46 378.35 81.46 460.39 338.43 460.39 402.67 396.15 402.67 312.47 338.43 248.23 81.46 248.23"/>
      <polygon class="cls-1" points="64.24 477.96 64.24 0 0 0 0 477.96 64.24 542.2 402.67 542.2 402.67 477.96 64.24 477.96"/>
    </g>
  </g>
</svg>
