<?xml version="1.0" encoding="UTF-8"?>
<svg id="Layer_2" data-name="Layer 2" xmlns="http://www.w3.org/2000/svg" viewBox="0 0 708 415.72">
  <g id="Layer_1-2" data-name="Layer 1">
    <g>
      <path d="M230.78,227.19c1.12.5,1.84-.07,2.43-.94,3.32-4.9,6.35-10.04,10.04-14.64,3.22-4.02,5.18-8.53,6.11-13.34,1.11-5.75,2.82-11.34,3.53-17.24,1-8.3,3.34-16.44,5.29-24.61,1.14-4.79,2.64-9.49,3.78-13.52,5.15-2.9,9.65-5.39,14.1-7.96,5.36-3.1,10.69-6.23,15.99-9.42,3.99-2.4,7.56-3.08,11.28.84,3.48,3.67,8.02,6.15,11.83,9.54,3.67,3.28,7.6,6.28,10.81,10.05,1.5,1.76,2.9,3.39,5.96,3.11,1.47-4.69,3.18-9.51,4.46-14.43.77-2.94,2.13-4.74,5.13-5.62,8.99-2.63,17.92-5.46,26.81-8.2,2.8,2.85,3.03,5.96,2.19,9.22-1.17,4.54-2.37,9.07-3.74,13.55-1.52,4.97-2.85,9.87-2.89,15.21-.03,3.84-1.63,7.66-2.51,11.5-1.65,7.2-3.27,14.4-4.92,21.59-1.49,6.49-2.76,13.04-4.59,19.44-1.57,5.47-2.7,10.99-3.6,16.6-1.75,10.94-3.85,21.82-5.71,32.74-.46,2.67-.59,5.4-.86,8.1-1.03,10.32-2.05,20.63-3.06,30.95-.09.92-.01,1.86-.01,3.32,2.66-.8,5.02-1.29,7.19-2.22,5.21-2.22,10.39-4.51,15.46-7.03,6.19-3.08,12.71-5.16,19.31-7.05,1.41-.4,2.81-.82,4.29-1.25,2.43-3.79,1.29-8.22,2.32-12.22,1.09-4.25,1.22-8.75,1.83-13.13,1.46-10.47,2.93-20.95,4.43-31.42,1.61-11.2,3.32-22.39,4.86-33.6,1.33-9.73,2.42-19.49,3.74-29.22.83-6.11,1.95-12.17,2.8-18.27,1.73-12.47,3.33-24.96,5.03-37.44,1-7.32,2.11-14.63,3.1-21.95,1.02-7.59,1.94-15.2,2.95-22.79.19-1.44.76-2.84.91-4.28.15-1.34-.02-2.71-.06-5.02-6.5,4.3-11.42,9.16-17.05,13.05-5.44,3.76-10.76,7.72-16.36,11.76-3.87-6.89-7.47-13.28-11.15-19.82.64-2.56,2.73-4.04,4.58-5.56,13-10.66,26.04-21.28,39.14-31.82,2.49-2,5.31-3.58,8.08-5.42,2.19,1,4.23,1.86,6.21,2.85,27.25,13.61,54.46,27.32,81.78,40.8,4.89,2.41,8.55,5.59,11.26,10.29,5.2,9,10.33,18.02,14.62,27.51,1.48,3.27,2.08,6.25,1.51,9.94-1.12,7.31-1.35,14.75-2.03,22.13-.73,7.86-1.59,15.71-2.35,23.57-.36,3.69-.64,7.38-.91,11.08-.89,12.31-1.68,24.64-2.68,36.94-.66,8.1-1.86,16.17-2.37,24.28-.26,4.19-1.94,7.64-3.94,11.04-3.26,5.54-6.72,10.98-10.07,16.47-.64,1.04-1.17,2.15-1.97,3.64.97.49,1.78,1.27,2.53,1.22,7.11-.49,14.21-1.1,21.3-1.75.93-.09,1.82-.63,3.02-1.07-.26-5.72,2.96-11.04,1.23-16.85-.19-.64.03-1.44.18-2.14,1.78-8.49,1.88-17.14,2.67-25.73,1.94-21.15,4.01-42.29,5.95-63.44.81-8.86,1.37-17.75,2.14-26.61.93-10.56,1.94-21.11,2.96-31.66,1.02-10.56,2.1-21.12,3.15-31.67.05-.49.04-.99.05-1.49.3-13.09,1.77-26.08,2.95-39.1.54-5.89.58-11.76,3.11-17.7,4.2-1.72,8.42-.53,12.59,1.07,2.98,1.15,5.82,2.78,8.89,3.54,4.42,1.11,8.08,3.64,11.96,5.71,3.46,1.84,5.55,6.61,4.1,10.18-3.23,7.93-3.17,16.42-4.86,24.6-2.14,10.38-2.87,20.98-3.72,31.54-.71,8.83-1.88,17.63-2.36,26.47-.81,14.97-3.52,29.73-4.57,44.65-.61,8.73-2.1,17.35-2.96,26.04-.91,9.3-1.56,18.63-2.72,27.9-1.55,12.41-2.27,24.89-4.04,37.28-.62,4.33-.1,8.83-.1,13.3,1.32,1.75,3.1.98,4.74.73,8.3-1.26,16.57-2.76,24.9-3.81,9.55-1.2,19.16-1.94,28.73-3.04,5.14-.6,10.24-1.55,15.36-2.34.73-.11,1.46-.41,2.19-.38,7.38.26,14.76.23,22.01-.78.59,2.27-.97,1.7-1.66,2.26.09.18.17.62.31.63.98.12,2.09.48,2.94.17,5.15-1.86,10.19-.59,15.33.02,3.37.4,6.69,1.12,10.27.65,4.17-.55,7.39,4.63,6.06,8.96-1.16,3.77-2.52,7.48-3.76,11.23-2.04,6.14-3.42,12.39-3.3,18.9.09,4.58-2.71,7.32-6.36,9.15-1.36.68-3.36.34-5.01.1-7.32-1.09-14.59-2.65-21.95-3.41-10.31-1.07-20.67-1.63-31.01-2.32-6.41-.43-12.84-1.09-19.24-.97-12.11.23-24.21,1.05-36.32,1.46-14.08.47-28.04,2.28-42.05,3.57-6.64.61-13.36.31-20,.95-9.09.88-18.16,2.04-27.17,3.49-13.18,2.12-26.28,4.53-39.2,8.1-6.83,1.88-13.75,3.79-20.94,4.47-4.07.39-7.99,2.34-11.98,3.56-8.75,2.68-17.49,5.37-26.25,7.99-1.89.57-3.84,1.18-5.79,1.26-5.52.23-10.68,1.76-15.74,3.79-9.14,3.67-18.54,6.55-28.04,9.16-3.79,1.04-7.52,2.29-11.26,3.5-.94.3-1.82.78-2.7,1.25-6.73,3.62-13.46,7.26-20.19,10.87-.87.47-1.75,1.01-2.69,1.22-10.49,2.34-19.51,8.22-29.35,12.13-1.6.64-3.3,1.03-4.89,1.68-3.87,1.59-7.83,3.04-11.54,4.97-8.38,4.34-17.17,7.65-25.91,11.12-4.81,1.91-9.5,4.15-14.18,6.38-7.13,3.41-14.13,7.07-21.31,10.37-5.68,2.61-10.92,5.81-15.34,10.23-1.59,1.59-3.34,2.02-5.41,1.45-1.89-.52-3.76-1.14-5.64-1.7-2.43-.73-4.33-2.03-5.9-4.17-3.23-4.37-6.8-8.49-10.15-12.77-.9-1.15-1.72-2.45-2.18-3.81-1.63-4.85-1.03-6.44,3.58-8.94,4.97-2.69,10.07-5.13,15.09-7.73,7.44-3.85,15.12-7.32,22.21-11.73,8.41-5.23,17.26-9.59,26.01-14.12,10.72-5.54,21.71-10.57,32.64-15.7,2.2-1.03,4.63-1.61,6.98-2.31,6.26-1.89,11.15-6.33,16.98-9.03,4.25-1.96,8.42-4.19,12.82-5.72,3.58-1.25,6.64-3.18,9.92-5,.14-1.92.45-3.64.36-5.34-.51-10.21.8-20.22,3.1-30.14.79-3.43.61-6.81.22-10.65-1.64.35-3.02.59-4.38.94-1.41.37-2.77.93-4.18,1.28-1.93.48-3.66.89-4.66,3.09-.71,1.56-4.09.33-4.24,3.26-.02.37-.96.76-1.53,1.02-.86.39-2.15.41-2.6,1.06-2.72,3.86-7.12,5.14-11.03,7.84-10.28-6.94-20.48-13.84-30.72-20.75.53-6.49,1.02-12.52,1.51-18.58-2.54-.24-2.62,1.64-3.46,2.68-.93,1.15-1.99,2.27-2.67,3.56-3.77,7.2-7.84,14.28-11.03,21.74-2.11,4.94-5.04,8.9-8.89,12.47-2.21,2.05-4.6,3.62-7.23,5.06-3,1.64-5.85,3.68-8.4,5.96-2.38,2.14-3.79,4.93-4.57,8.24-1.99,8.42-4.78,16.66-6.58,25.12-1.1,5.17-3.87,8.29-8.34,10.46-5.56,2.69-11,5.64-16.62,8.2-16.44,7.49-33,14.71-49.4,22.26-21.57,9.93-43.05,20.05-64.54,30.16-4.02,1.89-7.9,4.1-11.8,6.22-5.41,2.94-10.45,6.59-16.61,8.1-2.28.56-4.32,2.1-6.79,3.36-3.84-5.72-5.71-11.91-8.61-17.55-2.79-5.42-6.26-10.63-7.47-16.99,4.68-3.87,10.54-4.69,15.32-7.66,5.02-3.11,10.33-5.74,15.46-8.69,4.88-2.8,9.68-5.74,14.43-8.57-.18-2.23-.56-4.13-.41-5.99.13-1.66,1.35-3.33,1.17-4.9-.38-3.35.39-6.4,1.43-9.43,2.32-6.75,3.15-13.8,4.32-20.79.57-3.4,1.44-6.78,2.5-10.07,1.9-5.89,3.34-11.85,3.69-18.03.25-4.44.53-8.9,2.74-12.88,2.03-3.65.27-7.23.18-11.1,1.41-1.5,4.24-2.61,2.58-5.76-.28-.53-.14-1.59.22-2.12,3.78-5.54,3.69-12.23,5.47-18.35,2.34-8.03,4-16.23,5.14-24.57.86-6.3,2.81-12.48,4.52-18.64,2.11-7.6,4.86-15.04,6.63-22.71,1.6-6.95,2.25-14.12,3.31-21.19.25-1.71.11-3.55.71-5.12,3.13-8.11,4.32-16.68,6.17-25.1.36-1.66,1.1-3.23,1.66-4.86-1.09-2.66-3.31-4.1-5.65-5.54-7.56-4.66-15.06-9.44-22.56-14.21-1.01-.64-1.85-1.54-3-2.51.88-3.33,3.09-5.73,4.72-8.42,1.8-2.96,3.58-5.94,5.41-8.88,1.68-2.7,3.4-5.37,5.31-8.36,2.31,1.39,4.29,2.35,6.01,3.67,18.7,14.28,38.31,27.27,57.72,40.53,6.72,4.59,12.76,10.17,19.37,14.96,6.2,4.49,12.71,8.56,19.14,12.73,2.68,1.74,5.5,3.25,8.26,4.86,2,12.7,3.8,25.13,3.52,38.23-2.65,2.54-6.12,4.74-9.4,7.21-5.08,3.84-10.5,7.17-15.31,11.54-7.82,7.11-16.67,13.08-25.12,19.49-6.09,4.63-12.24,9.18-18.54,13.9,1.93,4.02,4.75,6.68,7.92,8.99,13.2,9.63,25.9,19.86,37.86,31.02,3.59,3.35,7.45,6.42,11.2,9.63,2.11-3.39,4.06-7.87,4.15-10.78.3-9.48,2.78-18.52,4.99-27.65,1.86-7.67,3.17-15.47,4.93-23.17,1.65-7.2,3.86-14.28,5.28-21.52,2.15-10.93,5.91-21.42,8.47-32.24,1.53-6.47,3.7-12.79,5.69-19.14.79-2.53,2.5-3.95,5.34-4.44,5.58-.96,11.1-2.29,16.63-3.56,1.4-.32,2.74-.96,3.82-1.35,2.79.67,4.28,2.53,4.9,4.6.53,1.77.46,4.03-.18,5.76-2.77,7.45-3.88,15.29-5.73,22.95-3.71,15.38-7.71,30.7-10.33,46.33-.45,2.67-.74,5.37-1.1,8.07-.24.41-.54.78-.74,1.2-.08.17.05.43.09.65.28-.22.76-.43.79-.68.04-.43-.2-.9-.33-1.35ZM453.62,65.85c-.43,1.51-1.31,3.12-1.27,4.69.33,10.93-1.5,21.65-2.73,32.44-.28,2.44-.28,4.92-.69,7.33-1.55,8.97-3.49,17.88-4.8,26.88-1.98,13.66-3.55,27.38-5.33,41.07-.25,1.95-.76,3.86-1.05,5.81-.53,3.65-1.12,7.3-1.43,10.96-.61,7.13-.91,14.29-1.6,21.41-.68,7.1-1.85,14.15-2.49,21.25-.71,7.81-1.09,15.65-1.52,23.48-.08,1.51.34,2.98,2.2,3.3,2.9-1.44,5.7-3.04,8.65-4.25,5.89-2.42,11.89-4.61,17.82-6.94,7.58-2.99,15.16-5.97,22.69-9.08,3.39-1.4,6.76-2.95,9.52-5.93,0-3.94-.24-7.91.05-11.83.85-11.58,1.93-23.13,2.87-34.7.34-4.18.52-8.38.81-12.57.66-9.36,1.33-18.71,2.01-28.06.3-4.18.58-8.36.98-12.53,1.1-11.3,3.32-22.48,3.5-33.88.05-2.97.05-5.94.04-8.91-.01-3.17-.07-6.33-.11-9.19-20.79-11.42-40.48-19.94-48.12-20.73ZM163.84,302.15c.26-.6.53-1.19.79-1.79-.87-.48-1.77-.93-2.61-1.46-3.38-2.1-6.38-4.6-8.86-7.78-1.05-1.34-2.49-2.38-3.8-3.51-10.41-8.98-21.93-16.6-31.69-26.38-2.53-2.54-5.47-4.92-9.16-5.75-2.55,2.72-2.88,5.7-1.26,9.11-2.86,2.38-4.26,5.17-3.92,9.01.31,3.5-2.43,6.95-.47,10.66.22.42-.47,1.33-.77,2-3.03,6.74-3.82,14.12-6.03,21.1-1.11,3.5-2.44,7.18-2.33,10.74.12,4.14-1.17,7.64-2.4,11.33-.22.66.49,1.64.78,2.49,1.13-.2,1.98-.13,2.55-.49,7.97-5.05,17.08-7.6,25.49-11.69,4.2-2.04,8.35-4.21,12.69-5.89,6.88-2.66,13.93-4.9,20.86-7.45,3.44-1.26,6.77-2.82,10.15-4.25ZM297.27,154.13c-1.4,3.16-3.11,5.33-3.19,7.55-.2,5.5-1.51,10.61-3.18,15.79-1.5,4.64-2.9,9.5-3.15,14.32-.56,10.93-5.69,20.75-6.93,31.46-3.26,7.17-1.83,14.95-3.65,23.3,7.63-3.31,14.49-5.91,20.99-9.23,4.55-2.33,8.67-5.55,12.84-8.56,1.11-.8,2.1-2.18,2.49-3.49,1.67-5.6,3.22-11.24,4.77-16.86,3.19-11.62,5.04-23.55,5.94-35.63-1.62-1.96-2.95-3.84-5.49-4.87-2.43-.99-4.83-2.64-6.57-4.59-3.94-4.44-9.61-5.61-14.86-9.18ZM133.71,142.89c-2.01,6.42-3.46,12.1-3.61,18.06-.05,1.93-.76,3.84-1.08,5.77-.86,5.23-2.55,10.33-2.88,15.92,7.13-1.79,12.04-6.47,17.43-10.31,5.52-3.93,10.92-8.02,16.78-12.35-9.04-5.8-17.5-11.23-26.64-17.09Z"/>
      <path d="M241.61,84.5c.74-.06,1.51-.29,2.21-.17,4.9.85,9.8.71,14.74.29,3.27-.28,6.05,2.65,5.09,5.64-1.71,5.3-1.6,11.12-4.82,16.01-1.47,2.24-2.39,4.86-3.42,7.37-1.56,3.77-4.15,6.65-7.53,8.8-1.19.75-2.73,1.6-4,1.45-4.35-.5-8.21,1.24-12.28,2.06-2.15.43-4.36.76-6.54.76-1.67,0-2.75-1.29-2.66-2.95.13-2.44.6-4.87.88-7.31.37-3.17,1.09-6.35.98-9.5-.2-5.82,1.95-11.11,3.17-16.61.44-1.98,1.9-3.48,4.03-3.97,3.35-.77,6.71-1.46,10.07-2.18.02.11.05.22.07.33Z"/>
      <path d="M174.49,345.99c.06-.13.11-.35.18-.36.17-.01.35.08.52.13-.06.13-.11.37-.18.37-.17,0-.35-.09-.53-.14Z"/>
      <path d="M686.63,242.86c.15.14.3.29.45.43-.35.15-.69.34-1.05.42-.12.03-.31-.25-.46-.38.35-.16.71-.31,1.07-.47Z"/>
      <path d="M230.78,227.19c.12.45.37.91.33,1.35-.02.25-.51.45-.79.68-.04-.22-.17-.49-.09-.65.2-.42.5-.79.74-1.2-.01-.01-.19-.17-.19-.17Z"/>
    </g>
  </g>
</svg>