<?xml version="1.0"?><svg xmlns="http://www.w3.org/2000/svg" viewBox="0 0 128 128"><g fill="#1d1d1b"><path d="m116.65 39.56c-12-24.3-31.54-34.98-52-35.53-45.22-1.23-59.53 41.99-59.37 57.68.15 15.69 6.77 38 30.15 53.53 23.38 15.54 52.92 8.46 69.68-6.15 16.77-14.61 23.54-45.23 11.54-69.53zm-58.92 75.07c-22.46-2.46-50.46-22.92-49.38-51.53 1.08-28.62 21.38-54.31 55.38-55.38 22-.7 49.53 16.46 52.76 52.3s-36.3 57.07-58.76 54.61z"/><path d="m33.99 21.15c1.12-.26 1.85 1.95 1.54 2.67s-3.08 1.64-7.38 5.54-5.23 7.38-6.56 8.1-2.97-.41-2.56-1.85 3.79-5.95 6.97-9.02c3.18-3.08 6.67-5.13 8-5.44z"/><path d="m81.37 60.12s6.87-1.33 8.41-12.41-9.54-16.92-13.33-17.33-25.13-1.03-25.64-.92c-.51.1-.63 1.45-1.03 3.18-.31 1.33-1.44 6.15.1 5.85s1.64-.51 9.23.1c7.59.62 9.43 1.44 12.41 4.82 2.97 3.38-.31 8.72-4.41 8.61-4.1-.1-4.1-2.56-3.9-5.23s-1.33-3.49-2.67-3.49-8.41-.21-10.67-.1c-2.26.1-2.67.82-3.08 2.36s-2.46 11.59-3.08 15.08 1.23 4.51 2.77 4.51 2.87-.1 9.02.1c6.15.21 9.95 1.64 13.23 5.54s0 9.85-5.13 9.64-4.61-5.33-4.41-7.79c.21-2.46-2.05-3.59-6.56-3.59s-9.74-.62-10.67.92c-.92 1.54-3.28 10.87-3.79 16s2.26 8.41 5.13 8.72 14.15.31 25.74-.51 20.41-3.08 22.05-17.23-9.74-16.82-9.74-16.82zm-13.74 30.77c-11.08 0-20.82.41-22.77.31s-4.2-.72-3.59-6.05 2.87-13.02 2.87-13.02l11.18.21s-2.05 11.08 7.59 11.18 12.61-9.43 9.23-13.84-5.64-6.77-14.46-7.18-10.26-.21-10.26-.21l3.18-15.9 9.33-.21s-1.54 8.82 6.46 8.82 10.46-8.72 7.59-12.82-10.26-6.77-21.54-6.77l.41-2.97s18.97-.41 25.64 2.26 8.1 7.9 7.69 14.15-6.26 8.82-8.41 9.85-3.08 2.26-1.54 2.87c1.54.62 10.87 1.03 11.59 12.72s-9.13 16.61-20.2 16.61z"/><path d="m95.52 90.27c-.65-.51 1.74-2.67 2.67-2.56.92.1 4.61 3.69 4.41 4.31s-.92 1.13-1.74 1.33-4.41-2.36-5.33-3.08z"/><path d="m94.8 82.48c-.65-.51 1.74-2.67 2.67-2.56s8.51 6.26 8.31 6.87-.92 1.13-1.74 1.33-8.31-4.92-9.23-5.64z"/><path d="m97.47 76.22c-.65-.51.92-2.56 1.85-2.46s8.51 6.26 8.31 6.87-.92 1.13-1.74 1.33-7.49-5.03-8.41-5.74z"/><path d="m99.62 69.45c-.65-.51.92-2.56 1.85-2.46s10.36 7.49 10.15 8.1-.92 1.13-1.74 1.33c-.82.21-9.33-6.26-10.26-6.97z"/><path d="m101.98 62.89c-.65-.51.92-2.56 1.85-2.46s8.41 5.54 8.2 6.15-.92 1.13-1.74 1.33-7.38-4.31-8.31-5.03z"/><path d="m102.5 55.92c-.65-.51.92-2.56 1.85-2.46s8.41 5.54 8.2 6.15-.92 1.13-1.74 1.33-7.38-4.31-8.31-5.03z"/><path d="m104.03 50.07c-.65-.51.92-2.56 1.85-2.46s6.26 4.2 6.05 4.82-.92 1.13-1.74 1.33-5.23-2.97-6.15-3.69z"/><path d="m104.03 41.97c-.65-.51.92-2.56 1.85-2.46s3.38 2.15 3.18 2.77-.92 1.13-1.74 1.33-2.36-.92-3.28-1.64z"/></g></svg>